<svg xmlns="http://www.w3.org/2000/svg" version="1.1" xmlns:xlink="http://www.w3.org/1999/xlink" xmlns:svgjs="http://svgjs.dev/svgjs" width="1500" height="1500" viewBox="0 0 1500 1500"><rect width="1500" height="1500" fill="#010536"></rect><g transform="matrix(0.6666666666666666,0,0,0.6666666666666666,250,437.6666666666667)"><svg viewBox="0 0 512 320" data-background-color="#010536" preserveAspectRatio="xMidYMid meet" height="937" width="1500" xmlns="http://www.w3.org/2000/svg" xmlns:xlink="http://www.w3.org/1999/xlink"><g id="tight-bounds" transform="matrix(1,0,0,1,0,0)"><svg viewBox="0 0 512 320" height="320" width="512"><g><svg></svg></g><g><svg viewBox="0 0 512 320" height="320" width="512"><g><path d="M96 160c0-88.366 71.634-160 160-160 88.366 0 160 71.634 160 160 0 88.366-71.634 160-160 160-88.366 0-160-71.634-160-160zM256 308.834c82.199 0 148.834-66.635 148.834-148.834 0-82.199-66.635-148.834-148.834-148.834-82.199 0-148.834 66.635-148.834 148.834 0 82.199 66.635 148.834 148.834 148.834z" fill="#fbfbf8" fill-rule="nonzero" stroke="none" stroke-width="1" stroke-linecap="butt" stroke-linejoin="miter" stroke-miterlimit="10" stroke-dasharray="" stroke-dashoffset="0" font-family="none" font-weight="none" font-size="none" text-anchor="none" style="mix-blend-mode: normal" data-fill-palette-color="tertiary"></path></g><g transform="matrix(1,0,0,1,181.90168328123406,80)"><svg viewBox="0 0 148.1966334375319 160" height="160" width="148.1966334375319"><g><svg viewBox="0 0 256 276.3895444174549" height="160" width="148.1966334375319"><g transform="matrix(1,0,0,1,0,169.4425575574639)"><svg viewBox="0 0 256 106.94698685999094" height="106.94698685999094" width="256"><g id="textblocktransform"><svg viewBox="0 0 256 106.94698685999094" height="106.94698685999094" width="256" id="textblock"><g><svg viewBox="0 0 256 106.94698685999094" height="106.94698685999094" width="256"><g transform="matrix(1,0,0,1,0,0)"><svg width="256" viewBox="3 -35.01 107.76 45.019999999999996" height="106.94698685999094" data-palette-color="#fbfbf8"><g class="wordmark-text-0" data-fill-palette-color="primary" id="text-0"><path d="M19.7 10.01L16.7 10.01 16.7-2.1Q15.67-0.88 14.23-0.2 12.79 0.49 11.11 0.49L11.11 0.49 10.35 0.49Q8.84 0.49 7.5-0.09 6.15-0.66 5.15-1.66 4.15-2.66 3.58-4 3-5.35 3-6.86L3-6.86 3-18.14Q3-19.65 3.58-21 4.15-22.34 5.15-23.34 6.15-24.34 7.5-24.91 8.84-25.49 10.35-25.49L10.35-25.49 11.11-25.49Q12.94-25.49 14.48-24.67 16.02-23.85 17.04-22.46L17.04-22.46 18.7-25 19.7-25 19.7 10.01ZM16.7-6.69L16.7-18.31Q16.7-19.21 16.36-20.01 16.02-20.8 15.43-21.39 14.84-21.97 14.05-22.31 13.26-22.66 12.35-22.66L12.35-22.66 10.35-22.66Q9.45-22.66 8.65-22.31 7.86-21.97 7.28-21.39 6.69-20.8 6.35-20.01 6.01-19.21 6.01-18.31L6.01-18.31 6.01-6.69Q6.01-5.79 6.35-4.99 6.69-4.2 7.28-3.61 7.86-3.03 8.65-2.69 9.45-2.34 10.35-2.34L10.35-2.34 12.35-2.34Q13.26-2.34 14.05-2.69 14.84-3.03 15.43-3.61 16.02-4.2 16.36-4.99 16.7-5.79 16.7-6.69L16.7-6.69ZM42.4 0L41.4 0 39.74-2.49Q38.72-1.15 37.18-0.33 35.64 0.49 33.81 0.49L33.81 0.49 33.05 0.49Q31.54 0.49 30.2-0.09 28.85-0.66 27.85-1.66 26.85-2.66 26.28-4 25.71-5.35 25.71-6.86L25.71-6.86 25.71-7.1Q25.71-8.62 26.28-9.96 26.85-11.3 27.85-12.3 28.85-13.31 30.2-13.88 31.54-14.45 33.05-14.45L33.05-14.45 39.4-14.45 39.4-18.31Q39.4-19.21 39.06-20.01 38.72-20.8 38.13-21.39 37.55-21.97 36.75-22.31 35.96-22.66 35.06-22.66L35.06-22.66 33.3-22.66Q32.39-22.66 31.6-22.31 30.81-21.97 30.22-21.39 29.64-20.8 29.29-20.01 28.95-19.21 28.95-18.31L28.95-18.31 28.95-17.41 25.95-17.9 25.95-18.14Q25.95-19.65 26.52-21 27.1-22.34 28.1-23.34 29.1-24.34 30.44-24.91 31.78-25.49 33.3-25.49L33.3-25.49 35.06-25.49Q36.57-25.49 37.91-24.91 39.26-24.34 40.26-23.34 41.26-22.34 41.83-21 42.4-19.65 42.4-18.14L42.4-18.14 42.4 0ZM39.4-6.69L39.4-12.11 33.05-12.11Q32.15-12.11 31.36-11.77 30.56-11.43 29.98-10.83 29.39-10.23 29.05-9.44 28.71-8.64 28.71-7.74L28.71-7.74 28.71-6.69Q28.71-5.79 29.05-4.99 29.39-4.2 29.98-3.61 30.56-3.03 31.36-2.69 32.15-2.34 33.05-2.34L33.05-2.34 35.06-2.34Q35.96-2.34 36.75-2.69 37.55-3.03 38.13-3.61 38.72-4.2 39.06-4.99 39.4-5.79 39.4-6.69L39.4-6.69ZM65.6-6.35L65.6-6.35Q65.6-4.83 64.99-3.58 64.37-2.32 63.33-1.42 62.28-0.51 60.9-0.01 59.52 0.49 58 0.49L58 0.49 56 0.49Q54.49 0.49 53.11-0.09 51.73-0.66 50.69-1.66 49.65-2.66 49.03-4 48.41-5.35 48.41-6.86L48.41-6.86 48.41-7.86 51.41-8.35 51.41-6.69Q51.41-5.79 51.79-4.99 52.17-4.2 52.8-3.61 53.44-3.03 54.27-2.69 55.1-2.34 56-2.34L56-2.34 58-2.34Q58.91-2.34 59.74-2.61 60.57-2.88 61.21-3.38 61.86-3.88 62.24-4.59 62.62-5.3 62.62-6.2L62.62-6.2Q62.62-7.54 62.03-8.4 61.45-9.25 60.48-9.83 59.52-10.4 58.28-10.78 57.05-11.16 55.76-11.54 54.46-11.91 53.23-12.4 52-12.89 51.03-13.68 50.07-14.48 49.48-15.67 48.9-16.87 48.9-18.65L48.9-18.65Q48.9-20.17 49.48-21.42 50.07-22.68 51.07-23.58 52.07-24.49 53.4-24.99 54.73-25.49 56.25-25.49L56.25-25.49 58-25.49Q59.52-25.49 60.86-24.91 62.2-24.34 63.2-23.34 64.2-22.34 64.78-21 65.35-19.65 65.35-18.14L65.35-18.14 65.35-18.04 62.35-17.55 62.35-18.31Q62.35-19.21 62.01-20.01 61.66-20.8 61.08-21.39 60.49-21.97 59.7-22.31 58.91-22.66 58-22.66L58-22.66 56.25-22.66Q55.34-22.66 54.55-22.39 53.75-22.12 53.17-21.62 52.58-21.12 52.24-20.41 51.9-19.7 51.9-18.8L51.9-18.8Q51.9-17.5 52.49-16.69 53.07-15.87 54.04-15.31 55-14.75 56.23-14.37 57.47-13.99 58.75-13.59 60.03-13.18 61.26-12.67 62.5-12.16 63.46-11.35 64.42-10.55 65.01-9.34 65.6-8.13 65.6-6.35ZM88.05 0L85.05 0 85.05-18.31Q85.05-19.21 84.71-20.01 84.37-20.8 83.78-21.39 83.2-21.97 82.4-22.31 81.61-22.66 80.71-22.66L80.71-22.66 78.7-22.66Q77.8-22.66 77.01-22.31 76.21-21.97 75.63-21.39 75.04-20.8 74.7-20.01 74.36-19.21 74.36-18.31L74.36-18.31 74.36 0 71.35 0 71.35-35.01 74.36-35.01 74.36-22.9Q75.38-24.12 76.82-24.8 78.26-25.49 79.95-25.49L79.95-25.49 80.71-25.49Q82.22-25.49 83.56-24.91 84.9-24.34 85.91-23.34 86.91-22.34 87.48-21 88.05-19.65 88.05-18.14L88.05-18.14 88.05 0ZM110.76 0L109.76 0 108.1-2.49Q107.07-1.15 105.53-0.33 103.99 0.49 102.16 0.49L102.16 0.49 101.41 0.49Q99.89 0.49 98.55-0.09 97.21-0.66 96.21-1.66 95.2-2.66 94.63-4 94.06-5.35 94.06-6.86L94.06-6.86 94.06-7.1Q94.06-8.62 94.63-9.96 95.2-11.3 96.21-12.3 97.21-13.31 98.55-13.88 99.89-14.45 101.41-14.45L101.41-14.45 107.75-14.45 107.75-18.31Q107.75-19.21 107.41-20.01 107.07-20.8 106.48-21.39 105.9-21.97 105.1-22.31 104.31-22.66 103.41-22.66L103.41-22.66 101.65-22.66Q100.75-22.66 99.95-22.31 99.16-21.97 98.57-21.39 97.99-20.8 97.65-20.01 97.3-19.21 97.3-18.31L97.3-18.31 97.3-17.41 94.3-17.9 94.3-18.14Q94.3-19.65 94.88-21 95.45-22.34 96.45-23.34 97.45-24.34 98.79-24.91 100.14-25.49 101.65-25.49L101.65-25.49 103.41-25.49Q104.92-25.49 106.26-24.91 107.61-24.34 108.61-23.34 109.61-22.34 110.18-21 110.76-19.65 110.76-18.14L110.76-18.14 110.76 0ZM107.75-6.69L107.75-12.11 101.41-12.11Q100.5-12.11 99.71-11.77 98.92-11.43 98.33-10.83 97.74-10.23 97.4-9.44 97.06-8.64 97.06-7.74L97.06-7.74 97.06-6.69Q97.06-5.79 97.4-4.99 97.74-4.2 98.33-3.61 98.92-3.03 99.71-2.69 100.5-2.34 101.41-2.34L101.41-2.34 103.41-2.34Q104.31-2.34 105.1-2.69 105.9-3.03 106.48-3.61 107.07-4.2 107.41-4.99 107.75-5.79 107.75-6.69L107.75-6.69Z" fill="#fbfbf8" data-fill-palette-color="primary"></path></g></svg></g></svg></g></svg></g></svg></g><g transform="matrix(1,0,0,1,48.896,0)"><svg viewBox="0 0 158.208 144.1949406875047" height="144.1949406875047" width="158.208"><g><svg xmlns="http://www.w3.org/2000/svg" xmlns:xlink="http://www.w3.org/1999/xlink" version="1.1" x="0" y="0" viewBox="5.53 13.440000000000005 88.92984013766583 81.053" enable-background="new 0 0 100 100" xml:space="preserve" height="144.1949406875047" width="158.208" class="icon-icon-0" data-fill-palette-color="accent" id="icon-0"><g fill="#ffff00" data-fill-palette-color="accent"><g fill="#ffff00" data-fill-palette-color="accent"><path d="M62.54 78.021c-3.981 1.806-8.237 2.722-12.647 2.722-2.374 0-4.682-0.28-6.903-0.793-0.048 2.061-0.37 4.053-0.937 5.94 2.528 0.553 5.149 0.853 7.84 0.853 5.271 0 10.36-1.096 15.126-3.257 1.509-0.685 2.177-2.463 1.493-3.972C65.828 78.007 64.052 77.34 62.54 78.021z" fill="#ffff00" data-fill-palette-color="accent"></path><path d="M94.37 66.443c-0.4-1.607-2.031-2.586-3.637-2.186l-7.94 1.98c2.454-5 3.752-10.539 3.752-16.146 0-20.209-16.442-36.651-36.652-36.651S13.241 29.882 13.241 50.092c0 2.697 0.301 5.325 0.857 7.858 1.887-0.568 3.879-0.892 5.94-0.94-0.515-2.225-0.797-4.538-0.797-6.918 0-16.901 13.75-30.651 30.651-30.651s30.652 13.75 30.652 30.651c0 4.718-1.099 9.375-3.173 13.574l-2.181-8.746c-0.401-1.607-2.031-2.586-3.637-2.186-1.608 0.401-2.586 2.029-2.186 3.637l3.828 15.351c0.341 1.364 1.563 2.275 2.909 2.275 0.24 0 0.484-0.029 0.728-0.09l15.351-3.827C93.792 69.679 94.771 68.051 94.37 66.443z" fill="#ffff00" data-fill-palette-color="accent"></path></g><path d="M38.953 86.32c-0.135-0.535-0.679-0.857-1.213-0.729l-3.868 0.965c1.175-2.183 1.8-4.641 1.8-7.134 0-8.311-6.761-15.071-15.071-15.071S5.53 71.112 5.53 79.423c0 8.31 6.761 15.07 15.071 15.07 2.167 0 4.26-0.45 6.22-1.339 0.503-0.229 0.726-0.821 0.498-1.324-0.229-0.503-0.82-0.727-1.324-0.498-1.698 0.771-3.514 1.161-5.394 1.161-7.208 0-13.071-5.863-13.071-13.07 0-1.926 0.429-3.75 1.18-5.397 0.186 1.123 0.699 2.202 1.564 3.067 1.103 1.103 2.551 1.654 3.999 1.654s2.896-0.552 3.999-1.654c2.204-2.205 2.204-5.793 0-7.997-0.844-0.844-1.91-1.374-3.064-1.566 1.647-0.75 3.469-1.178 5.393-1.178 7.208 0 13.071 5.863 13.071 13.071 0 2.234-0.574 4.44-1.659 6.379-0.003 0.005-0.002 0.01-0.005 0.014l-1.075-4.314c-0.135-0.535-0.678-0.858-1.213-0.729-0.535 0.134-0.861 0.677-0.729 1.213l1.601 6.419c0.114 0.454 0.521 0.758 0.97 0.758 0.08 0 0.162-0.01 0.243-0.029l6.419-1.601C38.76 87.399 39.086 86.856 38.953 86.32zM16.858 75.679c-1.381 1.381-3.789 1.381-5.17 0-1.425-1.426-1.425-3.744 0-5.169 0.69-0.69 1.608-1.071 2.585-1.071s1.895 0.381 2.585 1.071C18.283 71.935 18.283 74.253 16.858 75.679z" fill="#ffff00" data-fill-palette-color="accent"></path></g></svg></g></svg></g><g></g></svg></g></svg></g></svg></g><defs></defs></svg><rect width="512" height="320" fill="none" stroke="none" visibility="hidden"></rect></g></svg></g></svg>